# xmcd
#
# Track frame offsets:
#	150
#	17226
#	33611
#	48434
#	63602
#	88968
#	99404
#	115135
#	130471
#	148734
#	156641
#	171366
#	186298
#	202249
#
# Disc length: 2905 seconds
#
# Revision: 1
# Processed by: cddbd v1.5.2PL0 Copyright (c) Steve Scherf et al.
# Submitted via: audiograbber 1.83.01
#
DISCID=de0b570e
DTITLE=Dapper Dan Men - Uphill The Stony Track
DYEAR=2015
DGENRE=Country
TTITLE0=Uphill The Stony Track
TTITLE1=Bang Bang
TTITLE2=Bill's Blood
TTITLE3=Boxcar Blues
TTITLE4=Boy Who Wouldn' Hoe Corn
TTITLE5=Dickson County
TTITLE6=If I Needed You
TTITLE7=R.O.T. Cabin Rag
TTITLE8=Franzi As We Knew Her
TTITLE9=Forked Deer
TTITLE10=Vegemite Song
TTITLE11=Jackson
TTITLE12=September When It Comes
TTITLE13=We're The Dapper Dan Men
EXTD=
EXTT0=
EXTT1=
EXTT2=
EXTT3=
EXTT4=
EXTT5=
EXTT6=
EXTT7=
EXTT8=
EXTT9=
EXTT10=
EXTT11=
EXTT12=
EXTT13=
PLAYORDER=
